<svg xmlns="http://www.w3.org/2000/svg" xmlns:xlink="http://www.w3.org/1999/xlink" viewBox="0 0 2405.59 726.81"><defs><style>.cls-1{isolation:isolate;}.cls-2{fill:url(#Gradiente_sem_nome_15);}.cls-3{fill:url(#Gradiente_sem_nome_15-2);}.cls-4{fill:url(#linear-gradient);}.cls-5,.cls-6,.cls-7{opacity:0.7;mix-blend-mode:multiply;}.cls-5{fill:url(#linear-gradient-2);}.cls-6{fill:url(#linear-gradient-3);}.cls-7{fill:url(#linear-gradient-4);}.cls-8,.cls-9{mix-blend-mode:screen;}.cls-8{fill:url(#radial-gradient);}.cls-9{fill:url(#radial-gradient-2);}.cls-10{fill:#fff;}</style><linearGradient id="Gradiente_sem_nome_15" x1="25.59" y1="256.56" x2="242.39" y2="817.01" gradientTransform="translate(-57.83 70.3) rotate(-8.65)" gradientUnits="userSpaceOnUse"><stop offset="0" stop-color="#ffb900"></stop><stop offset="1" stop-color="#c18b17"></stop></linearGradient><linearGradient id="Gradiente_sem_nome_15-2" x1="116.76" y1="413.15" x2="853.5" y2="413.15" xlink:href="#Gradiente_sem_nome_15"></linearGradient><linearGradient id="linear-gradient" x1="340.44" y1="342.47" x2="340.48" y2="342.59" gradientTransform="translate(-57.83 70.3) rotate(-8.65)" gradientUnits="userSpaceOnUse"><stop offset="0" stop-color="#00beff"></stop><stop offset="1" stop-color="#0631db"></stop></linearGradient><linearGradient id="linear-gradient-2" x1="121.81" y1="176.32" x2="570.84" y2="642.99" gradientTransform="translate(-57.83 70.3) rotate(-8.65)" gradientUnits="userSpaceOnUse"><stop offset="0" stop-color="#0631db"></stop><stop offset="1" stop-color="#fff"></stop></linearGradient><linearGradient id="linear-gradient-3" x1="227.61" y1="70.51" x2="777.7" y2="686.34" xlink:href="#linear-gradient-2"></linearGradient><linearGradient id="linear-gradient-4" x1="262.62" y1="-14.71" x2="960.33" y2="676.08" xlink:href="#linear-gradient-2"></linearGradient><radialGradient id="radial-gradient" cx="44.8" cy="267.87" r="155.41" gradientTransform="translate(-57.83 70.3) rotate(-8.65)" gradientUnits="userSpaceOnUse"><stop offset="0" stop-color="#c6ffff"></stop><stop offset="1"></stop></radialGradient><radialGradient id="radial-gradient-2" cx="369.83" cy="61.77" r="411.33" xlink:href="#radial-gradient"></radialGradient></defs><g class="cls-1"><g id="logo"><path class="cls-2" d="M76.47,339.53l27.2,178.84A7.57,7.57,0,0,1,97.32,527a43.82,43.82,0,0,1-18.83-1.2,44.29,44.29,0,0,1-31.65-35.95L30.68,383.67a44.34,44.34,0,0,1,37.16-50.49A7.57,7.57,0,0,1,76.47,339.53Z" transform="translate(-30.17 -19.09)"></path><path class="cls-3" d="M744.78,21.57,132.38,233.63a57.08,57.08,0,0,0-37.75,62.53l39.28,258.21a57.08,57.08,0,0,0,54.64,48.48l80.56,2.53a152.43,152.43,0,0,1,83,27.76L507.76,742.87c13.76,9.7,31.22-5.72,23.31-20.57l-43.46-81.55a19,19,0,0,1,17.37-28l16.94.53,164.45,5.17L740,620.18l96.3,3a44.59,44.59,0,0,0,45.5-51.28L803.47,57A44.6,44.6,0,0,0,744.78,21.57Zm-432.2,420.9a46.74,46.74,0,0,1-37.84-11.05l-.05,0A46.82,46.82,0,0,1,330,356.24l.13.07a48.87,48.87,0,0,1,6.16,4.54,46.83,46.83,0,0,1-23.7,81.62Zm172.91-26.31a46.83,46.83,0,1,1,39.25-53.34A46.63,46.63,0,0,1,485.49,416.16Zm172.91-26.3a46.69,46.69,0,0,1-24.71-2.92l0,0a46.83,46.83,0,1,1,40-84.55l0,0a46.8,46.8,0,0,1,24,34.12A46.83,46.83,0,0,1,658.4,389.86Z" transform="translate(-30.17 -19.09)"></path><path class="cls-4" d="M330.34,357.77l-.13-.07v0Z" transform="translate(-30.17 -19.09)"></path><path class="cls-5" d="M686.59,620l-164.45-5.17L281.29,437.54A46.82,46.82,0,0,0,336.5,362.3Z" transform="translate(-30.17 -19.09)"></path><path class="cls-6" d="M874.84,605.12a44.44,44.44,0,0,1-38.32,19.54l-96.3-3L454.94,411.69a46.82,46.82,0,0,0,55.64-74.63Z" transform="translate(-30.17 -19.09)"></path><path class="cls-7" d="M862.09,442.37l19.52,128.32L654,403.17,633.91,388.4a46.83,46.83,0,0,0,50.39-76.87Z" transform="translate(-30.17 -19.09)"></path><path class="cls-8" d="M40.35,397.5l15,99s4.78,20.69,23.32,30.77A44.28,44.28,0,0,1,47.06,491.3L30.91,385.12a44.33,44.33,0,0,1,37.15-50.49A7.59,7.59,0,0,1,76.69,341l.9,5.92S33.79,354.4,40.35,397.5Z" transform="translate(-30.17 -19.09)"></path><path class="cls-9" d="M803.69,58.47l4.38,28.77c-6.68-43.89-55.33-44.66-55.33-44.66L150.62,252c-44,10.17-45.68,48.63-45.68,48.63l9.25,124.09L94.85,297.62a57.08,57.08,0,0,1,37.75-62.53L745,23A44.6,44.6,0,0,1,803.69,58.47Z" transform="translate(-30.17 -19.09)"></path><path class="cls-10" d="M1150.09,290.76,1113,501.8H1002.33l65.9-375h132.33l74.54,219.94,152.2-219.94H1573l-65.91,375H1396.44l37.14-211-146.19,211H1222Z" transform="translate(-30.17 -19.09)"></path><path class="cls-10" d="M2022.41,126.78l-16.21,92.06H1846.94l-49.69,283H1686.62l49.69-283H1577.05l16.21-92.06Z" transform="translate(-30.17 -19.09)"></path><path class="cls-10" d="M1976.81,501.8l65.9-375h251.84q39.49,0,67.87,9.42t45.76,27.46q17.4,18,23.8,44.2t2,59.88q-5,37.41-20.26,64.21a132.54,132.54,0,0,1-39.76,43.8q-24.45,17-57,25t-72,8h-141l-16.48,93.1Zm160.31-283-17,97.81h141.22a76.8,76.8,0,0,0,24.45-3.55,52.81,52.81,0,0,0,18.05-10,50,50,0,0,0,12-15.52,69.59,69.59,0,0,0,6.4-19.85,64.09,64.09,0,0,0,.53-19.85,31.21,31.21,0,0,0-6.54-15.51q-5.24-6.44-14.65-10t-23.27-3.55Z" transform="translate(-30.17 -19.09)"></path><path class="cls-10" d="M1032.34,563.63a51.4,51.4,0,0,1,15.16,1.94,27.88,27.88,0,0,1,10.33,5.58l-3.21,3a25.79,25.79,0,0,0-9.2-4.67,47.4,47.4,0,0,0-13.37-1.65,49.55,49.55,0,0,0-16.4,2.49,37.69,37.69,0,0,0-12.12,6.73,33.62,33.62,0,0,0-8,9.89,40,40,0,0,0-4.12,12,34.49,34.49,0,0,0-.09,12,21,21,0,0,0,4.52,9.89,23.88,23.88,0,0,0,9.75,6.73,42.05,42.05,0,0,0,15.52,2.49q3.31,0,6.66-.28a53.33,53.33,0,0,0,6.49-1,39.85,39.85,0,0,0,5.94-1.75,24.59,24.59,0,0,0,5.1-2.66l4.22-23.71h-21.7l.72-4.31h26.3l-5.37,30.46a33.94,33.94,0,0,1-6.54,3.65,44.44,44.44,0,0,1-7,2.27,53.07,53.07,0,0,1-7.4,1.17q-3.78.35-7.62.34a46.77,46.77,0,0,1-17.22-2.8,28.5,28.5,0,0,1-11.25-7.62,24.92,24.92,0,0,1-5.61-11.23,36.47,36.47,0,0,1-.26-13.66,42.93,42.93,0,0,1,4.72-13.86,38.07,38.07,0,0,1,9.27-11.21,43,43,0,0,1,13.72-7.5A55.84,55.84,0,0,1,1032.34,563.63Z" transform="translate(-30.17 -19.09)"></path><path class="cls-10" d="M1151.57,610.53h-42.64l-16.19,22.75h-5.36l48.95-68.69h3.36l24.81,68.69h-4.69ZM1112,606.31h38.13l-12.84-35.49Z" transform="translate(-30.17 -19.09)"></path><path class="cls-10" d="M1205.88,633.28,1218,564.59h37.12a26.27,26.27,0,0,1,9.7,1.53,14.58,14.58,0,0,1,5.89,4,12.2,12.2,0,0,1,2.69,5.62,17.6,17.6,0,0,1,0,6.35,20.41,20.41,0,0,1-4.1,9.44,17.33,17.33,0,0,1-8.55,5.65,16.27,16.27,0,0,1,4.87,2.52,12.78,12.78,0,0,1,3.32,3.8,14.65,14.65,0,0,1,1.68,4.94,18.29,18.29,0,0,1-.09,5.89,25.33,25.33,0,0,1-2.35,7.28,18.42,18.42,0,0,1-4.89,6,23.66,23.66,0,0,1-7.9,4.09,37.71,37.71,0,0,1-11.4,1.51Zm38.81-4.21a29.37,29.37,0,0,0,8.59-1.13,19.53,19.53,0,0,0,6.23-3.09,14.74,14.74,0,0,0,4-4.69,19.49,19.49,0,0,0,2.06-6,17.29,17.29,0,0,0,.1-5.94,10.33,10.33,0,0,0-2.06-4.72,10.51,10.51,0,0,0-4.27-3.11,17,17,0,0,0-6.56-1.13h-36.36l-5.27,29.8Zm8.86-34a16.45,16.45,0,0,0,5.67-.91,12.91,12.91,0,0,0,4.41-2.63,14.37,14.37,0,0,0,3.12-4.14,19.61,19.61,0,0,0,1.74-5.44,13.56,13.56,0,0,0,0-5.44,8.59,8.59,0,0,0-2.3-4.14,11.15,11.15,0,0,0-4.65-2.64,24.51,24.51,0,0,0-7.14-.91h-32.52l-4.65,26.25Z" transform="translate(-30.17 -19.09)"></path><path class="cls-10" d="M1310.64,633.28l12.08-68.69h43.2a17.29,17.29,0,0,1,7.53,1.51,13.35,13.35,0,0,1,5.07,4.09,14.56,14.56,0,0,1,2.57,6,20.64,20.64,0,0,1,0,7.19,25.41,25.41,0,0,1-2.42,7.49,20.84,20.84,0,0,1-4.48,5.94,19.56,19.56,0,0,1-6.47,3.93,23.73,23.73,0,0,1-8.43,1.41l13.13,31.14h-4.74l-13.13-31.14H1320.7l-5.46,31.14Zm16-64.48-5.13,29.13h38.61a15.71,15.71,0,0,0,6.44-1.25,15.4,15.4,0,0,0,4.82-3.3,17.25,17.25,0,0,0,3.25-4.67,20.69,20.69,0,0,0,1.73-5.34,18.49,18.49,0,0,0,.17-5.34,11.29,11.29,0,0,0-1.61-4.68,9.33,9.33,0,0,0-3.66-3.3,12.89,12.89,0,0,0-6-1.25Z" transform="translate(-30.17 -19.09)"></path><path class="cls-10" d="M1430.11,564.59h4.6l-12.07,68.69H1418Z" transform="translate(-30.17 -19.09)"></path><path class="cls-10" d="M1529.5,596l-.76,4.22h-49.53l-5.08,28.84h52.79l-.72,4.21h-57.39l12.07-68.69h56.91l-.72,4.21h-52.31L1480,596Z" transform="translate(-30.17 -19.09)"></path><path class="cls-10" d="M1576.25,629.07h47.57l-.72,4.21h-52.16L1583,564.59h4.6Z" transform="translate(-30.17 -19.09)"></path><path class="cls-10" d="M1770.25,563.63a46.77,46.77,0,0,1,17.22,2.8,28.54,28.54,0,0,1,11.26,7.62,25,25,0,0,1,5.6,11.23,36.41,36.41,0,0,1,.27,13.65,42.82,42.82,0,0,1-4.72,13.87,38.38,38.38,0,0,1-9.27,11.21,43.14,43.14,0,0,1-13.72,7.5,55.86,55.86,0,0,1-18.14,2.73,52.27,52.27,0,0,1-12.14-1.29,36.61,36.61,0,0,1-9.46-3.6,25.25,25.25,0,0,1-6.85-5.53,24.88,24.88,0,0,1-4.33-7.16,28.92,28.92,0,0,1-1.92-8.41,39.41,39.41,0,0,1,.41-9.32,43.12,43.12,0,0,1,4.69-13.86,37.85,37.85,0,0,1,9.25-11.21,43,43,0,0,1,13.72-7.5A55.84,55.84,0,0,1,1770.25,563.63ZM1759,630a49.57,49.57,0,0,0,16.41-2.49,37.9,37.9,0,0,0,12.12-6.73,33.43,33.43,0,0,0,8-9.89,39.69,39.69,0,0,0,4.12-12,34.2,34.2,0,0,0,.1-12,20.87,20.87,0,0,0-4.53-9.89,23.88,23.88,0,0,0-9.75-6.73q-6.22-2.49-15.52-2.49a49.55,49.55,0,0,0-16.4,2.49,37.69,37.69,0,0,0-12.12,6.73,33.47,33.47,0,0,0-8,9.89,40,40,0,0,0-4.12,12,34.49,34.49,0,0,0-.09,12,21,21,0,0,0,4.52,9.89,23.88,23.88,0,0,0,9.75,6.73A42.05,42.05,0,0,0,1759,630Z" transform="translate(-30.17 -19.09)"></path><path class="cls-10" d="M1847.47,629.07H1895l-.71,4.21h-52.17l12.07-68.69h4.6Z" transform="translate(-30.17 -19.09)"></path><path class="cls-10" d="M1948.39,564.59h4.6l-12.07,68.69h-4.6Z" transform="translate(-30.17 -19.09)"></path><path class="cls-10" d="M2064.7,564.59h5.36l-48,68.69h-3.36l-23.85-68.69h4.69l21.61,62.46Z" transform="translate(-30.17 -19.09)"></path><path class="cls-10" d="M2160.07,596l-.77,4.22h-49.53l-5.08,28.84h52.79l-.72,4.21h-57.38l12.07-68.69h56.91l-.72,4.21h-52.31L2110.54,596Z" transform="translate(-30.17 -19.09)"></path><path class="cls-10" d="M2214.05,564.59h4.6l-12.07,68.69H2202Z" transform="translate(-30.17 -19.09)"></path><path class="cls-10" d="M2252.75,633.28l12.08-68.69H2308a17.22,17.22,0,0,1,7.52,1.51,13.31,13.31,0,0,1,5.08,4.09,14.41,14.41,0,0,1,2.56,6,20.63,20.63,0,0,1,0,7.19,25.71,25.71,0,0,1-2.42,7.49,20.84,20.84,0,0,1-4.48,5.94,19.66,19.66,0,0,1-6.47,3.93,23.73,23.73,0,0,1-8.43,1.41l13.13,31.14h-4.74l-13.13-31.14h-33.87l-5.46,31.14Zm15.95-64.48-5.12,29.13h38.61a15.71,15.71,0,0,0,6.44-1.25,15.52,15.52,0,0,0,4.82-3.3,17.25,17.25,0,0,0,3.25-4.67,20.69,20.69,0,0,0,1.73-5.34,18.49,18.49,0,0,0,.17-5.34,11.29,11.29,0,0,0-1.61-4.68,9.33,9.33,0,0,0-3.66-3.3,12.89,12.89,0,0,0-6-1.25Z" transform="translate(-30.17 -19.09)"></path><path class="cls-10" d="M2419.55,610.53h-42.64l-16.19,22.75h-5.36l48.95-68.69h3.36l24.81,68.69h-4.69Zm-39.62-4.22h38.13l-12.84-35.49Z" transform="translate(-30.17 -19.09)"></path></g></g></svg>